<?xml version="1.0" standalone="no"?><!DOCTYPE svg PUBLIC "-//W3C//DTD SVG 1.1//EN" "http://www.w3.org/Graphics/SVG/1.1/DTD/svg11.dtd"><svg t="1737547018337" class="icon" viewBox="0 0 1024 1024" version="1.1" xmlns="http://www.w3.org/2000/svg" p-id="1884" width="128" height="128" xmlns:xlink="http://www.w3.org/1999/xlink"><path d="M0 0h1024v1024H0z" fill="#D3F2CA" p-id="1885" data-spm-anchor-id="a313x.manage_type_mylikes.0.i13.211c3a81nMMuwo" class="selected"></path><path d="M923.2 844.8c4.8 2.2 8.6 5.7 11 10.1 2.5 4.5 3.6 9.8 3 15.1-0.3 2.4-0.9 4.7-1.8 6.9 2.3 0.3 4.6 0.9 6.8 1.9 4.7 2.1 8.5 5.7 11 10.1 2.5 4.4 3.6 9.6 3 15-0.6 5.5-2.9 10.4-6.3 14.2-3.5 3.9-8.1 6.7-13.2 7.9-2.2 0.5-4.5 0.7-6.8 0.6 0.3 2.2 0.4 4.5 0.2 6.8-0.6 5.3-2.9 10.3-6.4 14.3-3.4 3.8-7.9 6.6-13.2 7.8-5.2 1.2-10.4 0.6-14.9-1.4-4.6-2.1-8.5-5.6-11.1-10.1-1.2-2.1-2.1-4.4-2.6-6.8-2.1 1.2-4.4 2.1-6.8 2.6-5.1 1.1-10.3 0.6-14.9-1.5-4.5-2-8.4-5.4-11-10.1-2.6-4.7-3.6-10-3-15 0.6-5.2 2.8-10.3 6.3-14.3 1.5-1.7 3.3-3.2 5.2-4.5-1.6-1.6-3-3.4-4.1-5.4-2.6-4.6-3.6-9.9-3-15.1 0.6-5.1 2.7-10.1 6.3-14.2 3.6-4.1 8.3-6.7 13.2-7.8 5-1.1 10.2-0.7 14.9 1.4 2.2 1 4.2 2.3 5.9 3.8 1-2.1 2.3-4.1 3.9-5.9 3.5-4 8.2-6.7 13.2-7.8 5.2-1.1 10.4-0.8 15.2 1.4z" fill="#FDC753" p-id="1886"></path><path d="M905.2 964.6c-4.5 0-8.9-0.9-13-2.8-6.3-2.8-11.6-7.7-15-13.7-6.8 1.5-13.9 0.8-20.2-2-6.3-2.8-11.5-7.6-15-13.7s-4.8-13.1-4.1-20.2c0.8-7.1 3.7-13.7 8.4-19-3.4-6.1-4.8-13.1-4-20.2 0.8-7.1 3.7-13.6 8.4-18.9 4.7-5.3 10.8-9 17.7-10.5 6.8-1.5 14-0.8 20.3 2 4.7-5.2 11-9 17.8-10.5 6.8-1.5 13.8-0.8 20.2 2 6.4 2.8 11.5 7.6 15 13.7 3.4 6.1 4.9 13.2 4.1 20.2 6.3 2.8 11.6 7.7 15 13.7 3.4 6.1 4.8 13.1 4 20.2-0.8 7.1-3.7 13.6-8.4 18.9-4.8 5.4-10.9 9-17.7 10.5-0.8 7.1-3.7 13.6-8.5 19-4.7 5.3-10.8 8.9-17.7 10.5-2.5 0.5-4.9 0.8-7.3 0.8zM888 923.8l2.4 11.5c0.3 1.5 0.9 3 1.6 4.4 1.6 2.9 4.1 5.2 7.1 6.5 3 1.3 6.3 1.6 9.5 0.9 3.3-0.8 6.3-2.5 8.7-5.2 2.4-2.7 3.9-6.1 4.3-9.6 0.2-1.5 0.1-3-0.1-4.6l-1.6-10.4 10.5 0.6c1.5 0.1 3 0 4.4-0.4 3.3-0.7 6.4-2.6 8.7-5.2 2.4-2.7 3.8-6 4.2-9.5 0.4-3.5-0.3-6.9-2-9.9-1.6-2.9-4.1-5.2-7.1-6.5-1.4-0.6-2.8-1-4.3-1.2l-11.2-1.3 4.3-10.4c0.6-1.5 1-3 1.2-4.6 0.4-3.5-0.3-7-2-10-1.6-2.9-4.1-5.1-7.1-6.4-3-1.3-6.3-1.7-9.5-0.9-3.3 0.7-6.4 2.6-8.7 5.2-1.1 1.2-1.9 2.5-2.6 3.9L894 871l-8.5-7.4c-1.1-1-2.4-1.8-3.8-2.4-2.9-1.3-6.3-1.6-9.6-0.9-3.3 0.7-6.3 2.5-8.7 5.2-2.4 2.7-3.9 6-4.2 9.5-0.4 3.5 0.3 7 2 10 0.7 1.3 1.6 2.5 2.7 3.5l7.5 7.4-8.8 5.8c-1.3 0.8-2.4 1.8-3.5 3-2.3 2.6-3.8 6-4.2 9.6-0.4 3.5 0.3 6.9 2 9.9 1.6 2.9 4.1 5.1 7 6.5 3 1.3 6.4 1.7 9.6 0.9 1.5-0.3 3-0.9 4.3-1.7l10.2-6.1z" fill="#333333" p-id="1887"></path><path d="M787.8 967.2l-25.5-1-22.1 12.9 1-25.5-12.9-22.1 25.5 1 22.1-12.9-1 25.5 12.9 22.1z" fill="#FFDC00" p-id="1888"></path><path d="M733.4 990.5l1.4-35.3-17.8-30.5 35.3 1.4 30.5-17.9-1.4 35.3 17.9 30.5-35.3-1.4-30.6 17.9z m6.4-52.1l7.9 13.6-0.6 15.7 13.6-7.9 15.7 0.6-7.9-13.6 0.6-15.7-13.6 7.9-15.7-0.6z" fill="#333333" p-id="1889"></path><path d="M958.5 284.6l-25.5-1-22.1 12.9 1-25.5-12.9-22.1 25.5 1 22.1-12.9-1 25.5 12.9 22.1z" fill="#00FFF5" p-id="1890"></path><path d="M904.1 307.9l1.4-35.3-17.9-30.6 35.3 1.4 30.5-17.9-1.4 35.3 17.9 30.5-35.3-1.4-30.5 18z m6.4-52.2l7.9 13.6-0.6 15.7 13.6-7.9 15.7 0.6-7.9-13.6 0.6-15.7-13.6 7.9-15.7-0.6z" fill="#333333" p-id="1891"></path><path d="M170.7 192c-6.8 3.6-15.3 1-18.9-5.9-1.4-2.7-1.9-5.8-1.4-8.9-5.5-5.4-5.6-14.2-0.3-19.8 2.1-2.2 5-3.6 8-4.1 3.4-6.9 11.8-9.8 18.7-6.4 2.8 1.4 5 3.6 6.4 6.4 7.6 1.1 12.9 8.2 11.8 15.8-0.4 3-1.9 5.9-4.1 8 1.3 7.6-3.8 14.8-11.4 16.1-3 0.7-6.1 0.2-8.8-1.2z" fill="#95EF8F" p-id="1892"></path><path d="M164.2 200c-2 0-4.1-0.3-6.1-0.9-5.2-1.6-9.5-5.2-12-10-1.6-3-2.4-6.3-2.3-9.7-5.9-7.9-5.3-19.1 1.8-26.4 2.4-2.4 5.3-4.2 8.5-5.2 2.5-3.5 6-6.1 10.1-7.5 5.2-1.7 10.7-1.4 15.6 1 3 1.5 5.6 3.7 7.6 6.5 4.1 1.3 7.7 3.8 10.3 7.3 3.3 4.4 4.6 9.7 3.8 15.1-0.5 3.3-1.8 6.5-3.8 9.2 0.1 9.8-6.9 18.6-16.9 20.3-3.3 0.6-6.8 0.3-9.9-0.8-2.3 0.8-4.5 1.1-6.7 1.1z m6.5-48c-0.8 0-1.6 0.1-2.4 0.4-1.9 0.7-3.5 2-4.4 3.8l-1.5 3-3.3 0.5c-1.6 0.2-3.2 1-4.3 2.2-2.9 3-2.9 7.8 0.1 10.7l2.4 2.3-0.6 3.3c-0.3 1.6 0 3.3 0.8 4.8 1.9 3.7 6.5 5.1 10.2 3.2l3-1.6 3 1.6c1.5 0.8 3.2 1 4.8 0.8 2-0.3 3.7-1.4 4.9-3.1s1.6-3.7 1.3-5.7l-0.6-3.3 2.4-2.3c1.2-1.2 2-2.7 2.2-4.3 0.3-2-0.2-4-1.4-5.6-1.2-1.6-3-2.7-5-3l-3.3-0.5-1.5-3c-0.7-1.5-2-2.7-3.4-3.4-1.1-0.5-2.3-0.8-3.4-0.8z" fill="#333333" p-id="1893"></path><path d="M588.3 331.2c71.9-98.4 178.2-40.2 144 44.7 16.8 0.5 144.2-32.9 83.9 100.1 92.9 15.3 74.5 99.5-32.1 121.3 19 44.4 62.6 127-77.7 109.1 0 0 24.9 156-124.6 104.6 3.3 106.8-233.9 149.7-262.2-49.5" fill="#FEDA63" p-id="1894" data-spm-anchor-id="a313x.manage_type_mylikes.0.i9.211c3a81nMMuwo" class="selected"></path><path d="M464.4 921.3c-35.6 0-69.7-11-97.1-31.6-36.6-27.5-60.1-70.8-67.9-125.5-1.6-11.1 6.2-21.4 17.3-23 11.1-1.6 21.4 6.2 23 17.3 6.3 44.3 23.8 77.5 52 98.6C415 874.6 445 882.7 476 880c23.9-2.1 46.7-10.7 62.6-23.7 10.8-8.8 23.5-23.7 22.8-44.9l-0.9-29.4 27.9 9.6c25.3 8.7 59.6 15.7 79-0.5 22.9-19.2 21.4-65.4 18.9-81.7l-4.1-26.7 26.8 3.4c38.4 4.9 65.8 1.8 73.4-8.3 9.3-12.4-5.1-45.3-13.7-65-1.1-2.6-2.3-5.2-3.3-7.6l-9.8-22.9 24.4-5c31.7-6.5 50-17.8 59.8-26.2 10.3-8.8 16.2-18.6 16-26.9-0.2-13.1-16.7-23.9-42.9-28.2l-26.2-4.3 11-24.2c20.1-44.3 14.2-60.1 10.7-64.9-10.3-14-48.3-9.4-62.7-7.7-6.2 0.8-10.4 1.3-14 1.1l-29.1-0.9 10.9-27c10.7-26.5 4.3-51-16.4-62.4-23-12.8-60.5-6.2-92.3 37.3-6.6 9.1-19.4 11-28.4 4.4-9.1-6.6-11-19.4-4.4-28.4 20.5-28 45.6-47.2 72.6-55.4 25.3-7.7 51-5.4 72.3 6.5 18.2 10.1 31.7 26.6 38.2 46.3 3.7 11.5 5 23.7 3.8 36.2 26.5-2 62.9-0.5 82.3 25.9 14.4 19.7 15.3 47 2.6 83.3 12 4.2 22.2 9.8 30.5 16.8 14 11.9 21.9 27.8 22.2 44.7 0.5 31.7-25.6 69-84.5 87.7 11.7 28.4 22.8 64.7 2.8 91.3-9.1 12.1-23.3 20.2-42.2 24.1-12.5 2.6-27.2 3.4-44.4 2.4 0 5.5-0.2 11.5-0.7 17.8-2.9 33.2-14.6 59.4-33.9 75.6-22.9 19.3-54.7 24.2-94.7 14.8-5.3 19.2-17.1 36.7-34.5 50.9-22.4 18.3-52.5 29.9-84.8 32.7-5.2 0.5-10.2 0.7-15.2 0.7z" fill="#333333" p-id="1895"></path><path d="M312.2 500C217.6 497.7 163 553.1 198 645.9c68.5 181.7 422.1 149.5 474.8-99.7 21.1-99.8-2.1-169.6-69.8-209.4" fill="#F44523" p-id="1896" data-spm-anchor-id="a313x.manage_type_mylikes.0.i7.211c3a81nMMuwo" class="selected"></path><path d="M393.5 781.8c-43.3 0-84.1-8.9-119.2-26.3-45.6-22.5-78.6-57.9-95.4-102.5-22.9-60.8-8.8-100.1 7-122.5 24.3-34.2 69.3-52.3 126.7-50.9 11.2 0.3 20.1 9.6 19.8 20.8s-9.6 20.1-20.8 19.8c-43.5-1.1-76.3 11-92.6 33.8-14.5 20.5-15.3 49.7-2.1 84.6 13.1 34.7 39.1 62.5 75.3 80.3 34.6 17.1 78.1 24.6 122.5 21.2 54.3-4.1 107-23.9 148.6-55.8 46.3-35.5 77.3-84.8 89.5-142.5 19.3-91.1-0.4-152.5-60.2-187.7-9.7-5.7-12.9-18.2-7.2-27.8 5.7-9.7 18.2-12.9 27.8-7.2 38 22.4 64 53.8 77.2 93.3 12.7 38.2 13.5 84.6 2.2 137.8-14.3 67.4-50.4 124.9-104.5 166.4-47.7 36.6-108.2 59.3-170.2 64-8.2 0.9-16.4 1.2-24.4 1.2z" fill="#333333" p-id="1897" data-spm-anchor-id="a313x.manage_type_mylikes.0.i10.211c3a81nMMuwo" class="selected"></path><path d="M255.815 582.46c-3.89-0.004-7.804-1.42-10.823-4.197-5.105-4.79-11.175-8.15-17.999-10.152-11.728-3.402-24.224-2.123-35.367 3.658-7.71 3.954-17.31 0.939-21.408-6.91-4.026-7.78-1.01-17.38 6.769-21.406 18.504-9.517 39.33-11.648 58.95-5.909 11.586 3.405 21.943 9.236 30.642 17.358 6.469 5.97 6.786 16.006 0.816 22.475a15.825 15.825 0 0 1-11.58 5.082z" fill="#333333" p-id="1898"></path><path d="M152.27 582.003c-7.354-0.013-14.727-1.015-21.906-3.083-19.974-5.804-36.402-19.166-46.2-37.524-9.945-18.78-11.809-40.459-5.308-61.01l30.296 9.654c-3.958 12.304-2.882 25.298 3.04 36.44 5.703 10.65 15.246 18.475 26.974 21.877 11.16 3.27 23.164 2.212 33.827-2.783a36.763 36.763 0 0 0 4.344-2.34l16.318 27.297c-2.31 1.384-4.622 2.627-7.078 3.73-10.801 5.14-22.565 7.82-34.306 7.742z" fill="#333333" p-id="1899"></path><path d="M93.94 501.763c-1.414 0.024-2.833-0.234-4.255-0.633-8.456-2.328-13.42-11.152-11.02-19.54a48.937 48.937 0 0 1 31.386-33.22c12.233-4.174 25.262-3.27 36.677 2.471 11.203 5.675 19.435 15.432 23.11 27.461 2.622 8.37-2.102 17.293-10.472 19.914-8.37 2.621-17.293-2.103-19.914-10.473-1.198-3.798-3.726-6.795-7.223-8.643-3.64-1.846-7.958-2.124-12.037-0.78-5.343 1.79-9.44 6.176-10.97 11.648-1.926 7.177-8.351 11.815-15.282 11.795z" fill="#333333" p-id="1900"></path><path d="M367.6 331.2a74.7 51.5 0 1 0 149.4 0 74.7 51.5 0 1 0-149.4 0Z" fill="#FEDA63" p-id="1901"></path><path d="M308.3 438.1c-64-34.9-74.1-80.2-12.7-76.9-28.9-32.6 14.5-40.8 46-15.4 0-34.2 52.9-70.5 61.6 32.1" fill="#FEDA63" p-id="1902"></path><path d="M301 451.5c-44.3-24.2-67.5-54.5-60.5-79.1 2.3-8.2 9.4-20.4 30.8-24.9-2-11.9 3.8-19.6 6.5-22.4 7.7-8.1 20.3-11.2 35.5-8.7 6.3 1 12.6 3 18.8 5.7 1.6-3.3 3.6-6.5 5.9-9.5 8.1-10.6 19.2-16.9 30.5-17.4 8-0.3 23 2 34.6 21.6 8 13.5 13.2 33.6 15.4 59.6l-30.4 2.6c-3.4-40.1-13.9-53.4-18.2-53.4h-0.1c-4.8 0.2-12.8 10-12.8 20v31.8l-24.8-19.9c-11.3-9.1-22.8-11.7-29-11.6 0.8 1.3 2.1 3 3.9 5l24.2 27.3-36.4-2c-19-1-24.7 3.6-25 4.3-0.3 1.1 0.4 6.3 7.5 14.8 8.2 9.8 21.8 20.2 38.3 29.2l-14.7 27z" fill="#333333" p-id="1903"></path><path d="M495.3 329.8c18.8-14.3 32.2-43.4 40-87.3-1.6-56.8 54.6-44.9 60.5 0.5 5.9 45.4-21.7 61.9-37.2 72.8 19.3-14.5 85.2 40 8.2 66.9" fill="#FEDA63" p-id="1904"></path><path d="M566.9 398c-6.3 0-12.2-3.9-14.4-10.2-2.8-8 1.4-16.6 9.4-19.4 8.7-3.1 28.8-11.3 26-22.4-2.6-10-17-18-21.2-17.3 0.1 0 0.5-0.1 0.9-0.4l-17.9-24.6c0.4-0.3 0.8-0.6 1.2-0.8 0.6-0.4 1.2-0.8 1.8-1.3 15.3-10.6 32.6-22.7 28.2-56.6-2.2-17.3-13.9-26-21.2-25.4-7.1 0.6-9.2 12.5-8.9 22.5v1.6l-0.3 1.6c-8.7 48.2-23.6 79.9-45.8 96.8-6.7 5.1-16.3 3.8-21.4-2.9s-3.8-16.3 2.9-21.4c15.4-11.7 26.8-37.4 34-76.4-0.2-14.5 2.9-26.5 9.1-35.6 6.6-9.8 16.6-15.6 28-16.5 12.2-1 25.1 4 35.2 13.6 10.1 9.6 16.7 23.2 18.7 38.3 4.1 31.6-5.7 52-17.7 65.8 13.4 8.8 26.9 24.8 25.2 44.7-1.2 13.8-10.2 32.9-46.6 45.6-1.8 0.4-3.5 0.7-5.2 0.7z" fill="#333333" p-id="1905"></path><path d="M422.1 321.4c-8.4-31.6-4.3-67 12.4-106.3 25-59-73-57.2-72.1-2.4 0.6 36.6 5 60.1 13 70.5-26.4-23.1-40.5-22.8-42.5 0.8-1 5.1 5 14.3 18.1 27.7" fill="#FEDA63" p-id="1906"></path><path d="M422.1 336.7c-6.7 0-12.9-4.5-14.7-11.3-9.3-34.8-4.9-73.9 13.1-116.2 2.1-5 5-13.9 0.5-18.4-4.4-4.4-16.1-6.2-27.4-1.5-6 2.6-16.2 9-15.9 23.2 0.8 45 7.1 57.9 9.8 61.4l-22.1 20.8c-8.5-7.4-13.8-10.7-16.9-12.2-0.1 0.5-0.2 1.1-0.2 1.8 0.9 1.8 4 6.8 13.7 16.8 5.9 6 5.8 15.7-0.3 21.6-6 5.9-15.7 5.8-21.6-0.3-17.4-17.8-23.9-29.6-22.3-40.3 1-10.7 4.9-24.2 17.8-29.4 4.6-1.9 9.4-2.2 14.1-1.5-1.3-10.1-2.3-22.6-2.5-38.2-0.4-23.1 12.5-42.5 34.5-51.8 21.8-9.3 46.9-6 60.8 8 6.2 6.2 10 14.2 11 23.2 1 8.8-0.7 18.4-5 28.6-15.2 35.9-19.1 68.4-11.7 96.5 2.2 8.1-2.7 16.5-10.8 18.7-1.2 0.3-2.6 0.5-3.9 0.5z" fill="#333333" p-id="1907"></path><path d="M421.1 416.5c28.3-68.3 54.3-85.4 77.9-51.2 36.6-50 117.7-34 67.9 17.4 60.2-18.3 99.7 51.5 0 51.5" fill="#FEDA63" p-id="1908"></path><path d="M566.9 449.4v-30.5c33.1 0 44-8.2 45.5-11.4 0.6-1.3-1.4-3.6-1.8-4.1-5-5.7-19.6-12.1-39.2-6.2L515 414.4l41-42.3c10.9-11.3 11.8-17.7 11.4-18.8-0.1-0.4-2.1-2.1-6.9-2.8-14.2-2.2-35.6 5.3-49.2 23.8l-12.7 17.3-12.2-17.6c-4.7-6.8-9.4-10.8-12.2-10.5-1.6 0.2-16 3.2-39.1 58.9L407 410.6c20.9-50.5 41.3-75.1 64-77.5 10-1.1 19.4 2.1 28.1 9.4 20.9-18.9 47.4-25 66.1-22.1 15.6 2.4 27 10.9 31.1 23.2 1.8 5.4 2.6 12.6-0.1 21.4 2.5 0.3 4.9 0.7 7.3 1.3 12.2 2.9 22.9 8.9 30 17.1 9.6 11 12.1 24.7 6.6 36.8-6 13.3-23.6 29.2-73.2 29.2z" fill="#333333" p-id="1909"></path><path d="M438.3 419c-11.7-25.1-36.6-42.4-65.4-42.4-40.1 0-72.6 33.6-72.6 75s32.5 75 72.6 75c19.1 0 36.5-7.6 49.5-20.1" fill="#FFFFFF" p-id="1910"></path><path d="M372.9 547c-51.2 0-92.9-42.8-92.9-95.3 0-52.6 41.7-95.3 92.9-95.3 35.5 0 68.4 21.2 83.8 54.1l-36.8 17.3c-8.9-18.9-26.9-30.7-47-30.7-28.8 0-52.3 24.5-52.3 54.7 0 30.1 23.4 54.7 52.3 54.7 13.1 0 25.7-5.1 35.4-14.4l28.2 29.3c-17.4 16.4-39.9 25.6-63.6 25.6z" fill="#333333" p-id="1911"></path><path d="M416.2 476.1a75.9 79 0 1 0 151.8 0 75.9 79 0 1 0-151.8 0Z" fill="#FFFFFF" p-id="1912"></path><path d="M492.1 575.4c-53.1 0-96.2-44.6-96.2-99.4 0-54.8 43.2-99.4 96.2-99.4 53.1 0 96.2 44.6 96.2 99.4 0 54.9-43.1 99.4-96.2 99.4z m0-158.1c-30.6 0-55.5 26.3-55.5 58.7s24.9 58.7 55.5 58.7 55.5-26.3 55.5-58.7-24.9-58.7-55.5-58.7z" fill="#333333" p-id="1913" data-spm-anchor-id="a313x.manage_type_mylikes.0.i8.211c3a81nMMuwo"></path><path d="M502.8 332.1c-47.1-36.7-70.7-19.3-78.5-13.5l-18.1-24.5c16.8-12.4 35.6-17.3 55.7-14.4 18.7 2.7 38.8 12.2 59.6 28.4l-18.7 24z" fill="#333333" p-id="1914"></path><path d="M548.375 721.712c-0.538-0.021-0.985-0.001-1.482-0.113-8.813-0.859-15.204-8.63-14.386-17.352 1.186-12.498-2.31-24.562-9.857-34.162-4.413-5.577-9.802-9.947-16.156-12.886-7.907-3.63-11.374-13.054-7.612-21.012 3.762-7.958 13.187-11.424 21.145-7.662 10.881 5.063 20.167 12.481 27.664 21.95 12.58 16 18.496 36.148 16.553 56.738-0.838 8.274-7.766 14.494-15.869 14.499z" fill="#333333" p-id="1915"></path><path d="M609.046 792.947c-2.731-0.012-5.513-0.156-8.214-0.482-20.69-2.207-39.143-12.393-52.098-28.779-11.961-15.177-17.92-34.249-16.78-53.773 0.195-2.65 0.39-5.3 0.808-7.96l31.422 4.904c-0.286 1.625-0.439 3.198-0.542 4.904-0.677 11.849 2.879 23.284 10 32.366 7.549 9.6 18.378 15.516 30.39 16.813 12.548 1.318 24.867-2.501 34.924-10.83l20.301 24.472c-14.324 12.012-31.945 18.398-50.21 18.365z" fill="#333333" p-id="1916"></path><path d="M648.695 778.637c-4.793-0.054-9.452-2.129-12.586-6.151-5.326-6.97-4.071-16.919 2.898-22.245 4.5-3.47 7.032-8.91 6.69-14.535-0.281-4.285-2.066-8.145-5.232-10.868-2.933-2.51-6.75-3.771-10.72-3.459-8.742 0.705-16.373-5.758-17.17-14.54-0.705-8.743 5.758-16.375 14.541-17.171 12.53-1.099 24.66 2.88 34.119 11.14 9.64 8.343 15.359 20.084 16.03 33.08a48.937 48.937 0 0 1-19.044 41.546c-2.682 2.09-6.125 3.185-9.526 3.203z" fill="#333333" p-id="1917"></path><path d="M478.8 476.5a14.9 15.4 0 1 0 29.8 0 14.9 15.4 0 1 0-29.8 0Z" fill="#333333" p-id="1918"></path><path d="M347.8 449.2a14.9 15.4 0 1 0 29.8 0 14.9 15.4 0 1 0-29.8 0Z" fill="#333333" p-id="1919"></path><path d="M355.6 710.1c-10.4 0-21.2-1.4-31.8-4.4-22.2-6.1-41.7-18-54.8-33.5-14.5-17.1-19.9-36.5-15.2-54.7 2.1-8.2 10.4-13 18.6-10.9 8.2 2.1 13 10.4 10.9 18.6-2.9 11.2 4.3 21.9 8.9 27.3 9.1 10.7 23.6 19.4 39.7 23.9 20 5.5 40 4.2 53.5-3.7 4.7-2.7 10.8-7.6 12.8-15.2 2.1-8.2 10.4-13.1 18.6-10.9 8.2 2.1 13 10.4 10.9 18.6-3.7 14.1-13 25.9-27 34-12.7 7.1-28.4 10.9-45.1 10.9z" fill="#333333" p-id="1920"></path><path d="M171.242168 890.729395a32.6 36.2 65 1 0-65.616683 30.597562 32.6 36.2 65 1 0 65.616683-30.597562Z" fill="#DD1010" p-id="1921"></path><path d="M222.511787 858.787403a32.6 36.2 57.998 1 0-61.397343 38.368298 32.6 36.2 57.998 1 0 61.397343-38.368298Z" fill="#DD1010" p-id="1922"></path><path d="M191.285384 918.544858c-12.928202-0.040059-25.788249-5.849464-34.073518-16.991919l10.187778-7.729759c9.8856 13.154653 28.648862 15.769993 41.803515 5.884392 13.154653-9.8856 15.769993-28.648862 5.884393-41.803515l10.187778-7.729759c14.161128 18.77425 10.431838 45.559925-8.342411 59.721053-7.631795 5.875858-16.700492 8.67027-25.647535 8.649507z" fill="#333333" p-id="1923"></path><path d="M162.376356 904.109898c-1.969449 0.035667-3.823838-0.865022-5.16449-2.556959-11.787871-15.577744-8.585508-37.814535 6.992235-49.602405 2.465352-1.811639 5.148121-3.393648 8.042199-4.522504 3.256601-1.297902 6.971487 0.279952 8.36002 3.494291 1.297902 3.256601-0.279952 6.971487-3.494291 8.36002-1.854877 0.754606-3.492339 1.738842-5.045276 2.90434-9.958148 7.512343-11.955929 21.684459-4.443586 31.642606 2.113579 2.876244 1.556604 6.887451-1.229009 8.958769-1.323307 0.948082-2.676662 1.358486-4.017802 1.321842z" fill="#333333" p-id="1924"></path><path d="M220.252042 860.461016c-1.969449 0.035667-3.823838-0.865022-5.16449-2.556959-7.512343-9.958148-21.684459-11.955929-31.642607-4.443586-1.462307 1.123236-2.749459 2.385472-3.952087 3.828969-2.266258 2.71184-6.259631 3.139589-8.971471 0.873332s-3.139589-6.259631-0.873332-8.971471c1.849258-2.186377 3.873671-4.233754 6.157762-5.96087 15.577744-11.787871 37.814535-8.585508 49.602406 6.992235 2.113579 2.876244 1.556604 6.887451-1.22901 8.958769-1.232676 0.90582-2.586031 1.316224-3.927171 1.279581zM136.561739 946.71102c-4.965883-0.001464-9.865076-0.806391-14.558579-2.589935C111.238859 940.2032 102.729089 932.365227 97.911241 922.033318L109.511981 916.623804c3.380946 7.250462 9.360137 12.737654 16.802123 15.446316 7.441986 2.708661 15.549411 2.348579 22.799873-1.032368 9.788124-4.564277 16.309385-14.004783 17.140205-24.763953l12.813142 0.976415c-1.224854 15.356423-10.544432 28.970588-24.501572 35.478909-5.709739 2.662495-11.829882 3.971636-18.004013 3.981897z" fill="#333333" p-id="1925"></path><path d="M103.715766 925.726216c-2.416495 0.023452-4.705717-1.336497-5.804525-3.692898-4.014873-8.609924-4.380575-18.14912-1.139856-27.052925 3.24072-8.903805 9.743172-16.018446 18.262465-19.991057 2.809554-1.310117 5.697525-2.215448 8.754543-2.758257 3.461803-0.621225 6.844213 1.663354 7.374807 5.167419 0.621225 3.461803-1.663354 6.844213-5.167418 7.374807-1.933294 0.349821-3.782064 0.880903-5.59468 1.72614-5.437847 2.53571-9.589517 7.119772-11.711644 12.743523s-1.797711 11.761728 0.780261 17.290206c1.479164 3.172077 0.076464 7.025963-3.095613 8.505126-0.864046 0.513249-1.764247 0.712344-2.65834 0.687916z" fill="#333333" p-id="1926"></path><path d="M124.878165 884.74277c-1.878818-0.006595-3.690945-0.816653-4.989336-2.41796-2.161948-2.743352-1.737866-6.802927 1.005486-8.964876 2.241829-1.817747 4.652705-3.27297 7.190367-4.456301 9.878755-4.606539 21.103293-4.434075 30.900703 0.486367 3.177208 1.607902 4.414527 5.444442 2.806626 8.621651s-5.444442 4.414527-8.62165 2.806625c-6.221524-3.167434-13.422641-3.22997-19.676165-0.313903-1.631354 0.760713-3.178184 1.702687-4.640491 2.825923-1.099784 0.954189-2.543769 1.406855-3.97554 1.412474z" fill="#333333" p-id="1927"></path><path d="M124.136261 880.785551c-2.549388-0.024917-4.923134-1.566128-5.93131-3.96479C105.213713 844.701799 113.742768 807.623298 139.38248 784.523186c2.658828-2.34321 6.724511-2.142651 9.025459 0.425547 2.34321 2.658828 2.142651 6.724511-0.425546 9.025459-21.693732 19.494666-28.904122 50.882725-17.965393 77.890209 1.297902 3.256601-0.279952 6.971487-3.494291 8.36002-0.815677 0.380356-1.625247 0.537189-2.386448 0.56113z" fill="#333333" p-id="1928"></path><path d="M171.759682 858.688723c-1.431771 0.005619-2.89359-0.526439-4.119671-1.499438-19.943177-16.740063-30.592669-41.234314-29.388826-67.283704C138.391161 786.419838 141.418619 783.684057 144.904363 783.824033c3.485743 0.139976 6.221524 3.167434 6.081548 6.653178-1.093914 22.02597 8.004105 42.719835 24.84287 56.82501 2.71184 2.266258 3.048959 6.301893 0.782701 9.013733-1.250998 1.57639-3.015244 2.288734-4.8518 2.372769z" fill="#333333" p-id="1929"></path><path d="M142.860164 791.507864c-1.30645 5.243395 15.02615 14.950412 23.779229 17.158038 8.753079 2.207627 16.976051-0.744106 18.433715-6.609702s-4.406468-12.289143-13.159547-14.49677-27.656316-1.337223-29.053397 3.948434z" fill="#6EC363" p-id="1930"></path><path d="M172.394573 815.802281c-2.416495 0.023452-4.869145-0.267249-7.26732-0.914367-5.110502-1.258081-12.044858-4.534467-17.668121-8.311889-8.522472-5.735632-12.085168-11.246276-10.730349-16.622563 1.354819-5.376287 7.03451-8.57646 17.262598-9.594411 6.73013-0.71088 14.414449-0.321976 19.43432 0.978367 5.466918 1.312557 10.311147 4.129194 13.566284 7.797175 3.907386 4.356873 5.464478 9.589029 4.212504 14.476008-1.251974 4.886979-5.028907 8.854948-10.539063 10.762349-2.440924 0.917546-5.31668 1.375831-8.270853 1.429331z m-20.914223-22.13516c3.895659 3.148625 11.204265 7.464212 16.671183 8.776769 2.978113 0.707701 5.974548 0.744832 8.23421-0.088191 1.311093-0.501035 2.314138-1.189438 2.465353-1.811639 0.399166-1.510188-2.674709-5.262692-8.540305-6.720356-5.418549-1.44545-13.973021-1.097581-18.830441-0.156583z" fill="#333333" p-id="1931"></path><path d="M837.343 123.55c3.561-5.217 11.64-9.046 15.913-9.54 6.645-0.644 13.366 1.987 17.102 7.4 3.439 4.845 4.628 10.78 3.325 16.436-2.145 9.465-7.533 17.79-16.378 25.035-7.77 6.435-15.672 10.4-23.626 12.013-6.994 1.39-14.304-1.355-18.61-6.98" fill="#FF6E6E" p-id="1932"></path><path d="M830.02 183.758c-8.452-0.013-16.554-3.93-21.748-10.747-2.825-3.81-2.09-9.167 1.72-11.992 3.809-2.825 9.167-2.09 11.992 1.72 2.252 3.086 6.241 4.575 10.061 3.79 6.583-1.37 13.252-4.76 19.91-10.19 7.381-6.001 11.836-12.674 13.52-20.292 0.748-3.319 0.003-6.825-1.993-9.658-1.917-2.716-5.514-4.128-9.337-3.852-2.077 0.207-7.79 2.866-9.774 5.74-2.686 3.859-7.976 4.868-11.834 2.182-3.859-2.685-4.868-7.975-2.182-11.834 4.962-7.185 15.348-12.399 22.11-13.122 9.879-1.034 19.452 3.17 24.966 10.965a29.298 29.298 0 0 1 4.754 23.234c-2.625 11.41-9.16 21.446-19.45 29.837-8.845 7.246-17.98 11.786-27.324 13.74-1.802 0.362-3.566 0.528-5.39 0.48z" fill="#333333" p-id="1933"></path><path d="M837.245 123.53c-1.21-6.347-7.992-12.861-11.965-14.958-5.92-3.086-13.138-3.165-18.63 0.454-4.904 3.223-8.23 8.282-9.24 13.994-1.556 9.58 0.302 19.414 5.789 29.446 4.813 8.78 10.654 15.416 17.425 19.89 5.963 3.91 13.77 4.103 19.87 0.5" fill="#FF6E6E" p-id="1934"></path><path d="M831.002 183.95a27.804 27.804 0 0 1-15.027-4.45c-7.951-5.213-14.7-12.943-20.187-22.974-6.398-11.634-8.697-23.39-6.76-34.931 1.35-7.99 6.116-15.213 13.014-19.78 8.033-5.163 18.386-5.494 27.256-0.815 5.626 3.029 14.477 11.473 16.332 20.798 0.927 4.663-2.07 9.072-6.732 10-4.662 0.927-9.072-2.07-9.999-6.732-0.546-2.959-5.121-7.72-7.52-9-3.325-1.767-7.306-1.726-10.1 0.074-2.913 1.879-4.917 4.85-5.467 8.208-1.292 7.694 0.339 15.55 4.934 23.88 4.14 7.528 9.034 13.267 14.643 16.904 3.248 2.16 7.504 2.274 10.75 0.256 4.045-2.473 9.289-1.148 11.762 2.898 2.474 4.046 1.149 9.29-2.897 11.763a26.323 26.323 0 0 1-14.002 3.9z" fill="#333333" p-id="1935"></path></svg>